HIERARCHY
ROOT root
{
	OFFSET	0	13.1	24.9
	CHANNELS 6  Xposition Yposition Zposition Xrotation Yrotation Zrotation
	JOINT spine_1
	{
		OFFSET	0	9.99999	0
		CHANNELS 3  Xrotation Yrotation Zrotation
		JOINT spine_2
		{
			OFFSET	0	112	-10
			CHANNELS 3  Xrotation Yrotation Zrotation
			JOINT spine_3
			{
				OFFSET	0	206.5	19.3
				CHANNELS 3  Xrotation Yrotation Zrotation
				JOINT spine_4
				{
					OFFSET	0	110.4	14.6
					CHANNELS 3  Xrotation Yrotation Zrotation
					JOINT neck_1
					{
						OFFSET	0	71.8	-50.3
						CHANNELS 3  Xrotation Yrotation Zrotation
						JOINT neck_2
						{
							OFFSET	0	86.2	-25.8
							CHANNELS 3  Xrotation Yrotation Zrotation
							JOINT head_ee
							{
								OFFSET	0	179.8	-8.7
								CHANNELS 3  Xrotation Yrotation Zrotation
								End Site
								{
									OFFSET	1	0	0
								}
							}
						}
					}
					JOINT left_clavicle
					{
						OFFSET	-43.2	22.4	-70.8
						CHANNELS 3  Xrotation Yrotation Zrotation
						JOINT left_shoulder
						{
							OFFSET	-93.9	-5.79999	48.7
							CHANNELS 3  Xrotation Yrotation Zrotation
							JOINT left_elbow
							{
								OFFSET	-291.4	-30.8	15.2
								CHANNELS 3  Xrotation Yrotation Zrotation
								JOINT left_lowarm_twist
								{
									OFFSET	-110.7	-3.89999	13.6
									CHANNELS 3  Xrotation Yrotation Zrotation
									JOINT left_hand
									{
										OFFSET	-110.7	-3.89999	13.6
										CHANNELS 3  Xrotation Yrotation Zrotation
										JOINT left_ee
										{
											OFFSET	-80.8	-5.10001	12.1
											CHANNELS 3  Xrotation Yrotation Zrotation
											End Site
											{
												OFFSET	1	0	0
											}
										}
									}
								}
							}
						}
					}
					JOINT right_clavicle
					{
						OFFSET	43.2	22.4	-70.8
						CHANNELS 3  Xrotation Yrotation Zrotation
						JOINT right_shoulder
						{
							OFFSET	93.9	-5.79999	48.7
							CHANNELS 3  Xrotation Yrotation Zrotation
							JOINT right_elbow
							{
								OFFSET	291.4	-30.8	15.2
								CHANNELS 3  Xrotation Yrotation Zrotation
								JOINT right_lowarm_twist
								{
									OFFSET	110.7	-3.89999	13.6
									CHANNELS 3  Xrotation Yrotation Zrotation
									JOINT right_hand
									{
										OFFSET	110.7	-3.89999	13.6
										CHANNELS 3  Xrotation Yrotation Zrotation
										JOINT right_ee
										{
											OFFSET	80.8	-5.10001	12.1
											CHANNELS 3  Xrotation Yrotation Zrotation
											End Site
											{
												OFFSET	1	0	0
											}
										}
									}
								}
							}
						}
					}
				}
			}
		}
	}
	JOINT left_hip
	{
		OFFSET	-82.8	-127.5	0.300001
		CHANNELS 3  Xrotation Yrotation Zrotation
		JOINT left_knee
		{
			OFFSET	-28.2	-396.7	2.2
			CHANNELS 3  Xrotation Yrotation Zrotation
			JOINT left_ankle
			{
				OFFSET	-11.7	-411.3	35.4
				CHANNELS 3  Xrotation Yrotation Zrotation
				JOINT left_toes
				{
					OFFSET	0	-60	-88.6
					CHANNELS 3  Xrotation Yrotation Zrotation
					JOINT left_foot_ee
					{
						OFFSET	-22.5	-16.5	-42.2
						CHANNELS 3  Xrotation Yrotation Zrotation
						End Site
						{
							OFFSET	1	0	0
						}
					}
				}
			}
		}
	}
	JOINT right_hip
	{
		OFFSET	82.8	-127.5	0.300001
		CHANNELS 3  Xrotation Yrotation Zrotation
		JOINT right_knee
		{
			OFFSET	28.2	-396.7	2.2
			CHANNELS 3  Xrotation Yrotation Zrotation
			JOINT right_ankle
			{
				OFFSET	11.7	-411.3	35.4
				CHANNELS 3  Xrotation Yrotation Zrotation
				JOINT right_toes
				{
					OFFSET	0	-60	-88.6
					CHANNELS 3  Xrotation Yrotation Zrotation
					JOINT right_foot_ee
					{
						OFFSET	22.5	-16.5	-42.2
						CHANNELS 3  Xrotation Yrotation Zrotation
						End Site
						{
							OFFSET	1	0	0
						}
					}
				}
			}
		}
	}
}
MOTION
Frames: 13
Frame Time: 0.02
1026.84 743.652 -1568.49 -8.01665 39.1708 3.67647 6.74099 0.308981 3.42445 6.74751 0.0905795 3.43716 6.74428 -0.232817 3.43047 6.728 0.311557 3.42422 -17.2623 3.45599 -10.7522 -17.1192 12.6205 -8.82046 -0.0 0.0 -0.0 -2.79165 -6.65488 -6.49921 -8.46571 -28.5895 53.2246 0.527907 -14.6554 0.0678863 23.5242 0.220725 -2.97587 -2.94125 12.3379 -13.6245 -0.0 0.0 -0.0 6.91732 1.93117 -13.4183 -34.2288 31.561 -75.9347 0.40945 11.4659 -0.0411066 50.4572 1.00174 6.16174 0.827673 -6.21919 -8.02921 0.0 0.0 0.0 10.9153 14.8013 1.00325 -5.08726 0.175775 0.760701 31.6584 26.5939 -4.33947 -3.25129 0.0 0.0 -0.0 0.0 -0.0 20.2776 13.2731 -2.03302 -11.0785 -0.295278 -1.6719 16.5111 0.30234 2.31006 0.512759 -0.0 -0.0 0.0 0.0 0.0 
1020.35 743.727 -1573.97 -9.53754 39.9587 4.87538 7.15652 0.351376 3.51074 7.16337 0.127408 3.52596 7.1613 -0.17877 3.52374 7.14417 0.379631 3.5078 -16.7099 3.17614 -11.289 -16.518 12.4851 -9.48546 -0.0 0.0 -0.0 -2.52009 -6.52834 -5.92058 -7.89463 -29.2362 53.2673 0.466093 -13.0013 0.0531102 22.5784 0.23555 -2.85596 -3.03244 12.457 -14.1549 -0.0 0.0 -0.0 7.02584 1.21243 -13.6411 -33.8144 30.9077 -76.6319 0.402886 11.2869 -0.0398118 50.9157 1.03514 6.21002 0.837906 -5.63019 -7.86558 0.0 0.0 0.0 9.23683 14.3899 1.75778 -0.188042 0.00769753 0.0278302 32.2057 26.5448 -4.4001 -4.91367 0.0 0.0 -0.0 0.0 -0.0 19.7734 13.8157 -1.45708 -6.47698 -0.211977 -0.970896 13.2717 1.84686 1.89004 -0.0128831 0.0 0.0 0.0 0.0 0.0 
1011.14 745.425 -1582.18 -10.2014 41.1282 5.13224 7.37812 0.646173 3.48727 7.38479 0.423101 3.52126 7.40045 0.131596 3.54411 7.38358 0.68933 3.479 -16.4263 2.17044 -11.6251 -16.1667 10.8035 -10.1878 -0.0 0.0 -0.0 -2.38175 -4.99365 -5.40147 -7.47148 -29.7594 53.5524 0.579214 -16.0097 0.0814539 20.3305 0.262826 -2.57014 -3.06071 10.4735 -15.4162 -0.0 0.0 -0.0 7.02377 1.34473 -13.6363 -34.6182 29.7959 -77.9962 0.457431 12.7677 -0.0511788 51.7988 1.10058 6.30227 0.927734 -5.26751 -8.31824 0.0 0.0 0.0 8.13285 10.5745 2.08699 0.519593 -0.0217442 -0.0767699 28.0241 26.6345 -3.91468 -8.45428 0.0 0.0 -0.0 0.0 -0.0 18.9562 14.2835 -0.981228 -5.92933 -0.19832 -0.887962 13.3657 3.20942 1.91082 0.105223 -0.0 -0.0 0.0 0.0 0.0 
1005.65 747.055 -1585.12 -10.7527 41.9092 5.54703 7.46215 0.684182 3.4172 7.46852 0.465484 3.45375 7.48649 0.184706 3.48005 7.47034 0.731675 3.40736 -17.0309 1.74122 -11.805 -16.7498 9.96524 -10.4638 -0.0 0.0 -0.0 -2.24254 -3.31374 -4.86099 -7.05288 -30.1547 53.7505 0.718844 -19.6005 0.124171 19.2546 0.271908 -2.43302 -2.76845 7.33726 -15.1156 -0.0 0.0 -0.0 7.03347 1.58249 -13.6545 -33.8898 29.7179 -79.5361 0.4164 11.6553 -0.0424996 52.1277 1.12531 6.33637 0.830179 -4.93773 -7.54118 0.0 0.0 0.0 6.66156 12.0507 3.02396 5.01898 -0.238975 -0.732699 25.418 26.5255 -3.59275 -9.66723 0.0 0.0 -0.0 0.0 -0.0 18.4027 14.3034 -0.459555 -4.6765 -0.164099 -0.698744 13.5204 3.32756 1.93248 0.337233 -0.0 -0.0 0.0 0.0 0.0 
985.543 746.172 -1598.19 -10.3581 43.669 5.03614 7.5657 0.582983 3.52375 7.57254 0.357721 3.55365 7.58382 0.0750869 3.5708 7.5666 0.637734 3.51427 -16.1138 -2.14127 -11.3088 -15.761 2.41728 -11.3836 -0.0 0.0 -0.0 -2.13689 0.131756 -4.11416 -7.97447 -29.8994 54.0787 0.927965 -24.6873 0.203074 14.9421 0.282434 -1.88244 -1.58328 -0.506711 -10.8662 -0.0 0.0 -0.0 5.76285 -0.219825 -11.1568 -32.5133 28.6748 -80.6929 0.487228 13.5695 -0.0579671 52.4289 1.14813 6.36747 -0.135383 -6.92954 -2.00641 0.0 0.0 0.0 4.15236 9.72591 3.98718 5.8147 -0.282735 -0.846869 27.2289 27.1402 -3.83092 -10.0017 0.0 0.0 -0.0 0.0 -0.0 18.4019 15.1222 0.507402 -9.51731 -0.273332 -1.43336 17.5011 1.3729 2.44435 -0.452025 0.0 0.0 0.0 0.0 0.0 
982.782 744.554 -1600.43 -11.6092 44.6921 5.49265 7.48857 0.625327 3.66757 7.49597 0.390847 3.69986 7.50955 0.0917658 3.71929 7.49089 0.677609 3.65828 -16.648 -1.62601 -11.358 -16.2984 3.32589 -11.2469 -0.0 0.0 -0.0 -2.17365 0.97737 -4.0513 -7.50022 -29.7458 54.8195 1.12571 -29.1451 0.292658 12.8104 0.272329 -1.61036 -2.37504 1.75402 -15.2277 -0.0 0.0 -0.0 6.20624 0.440292 -12.0176 -31.561 28.7887 -81.4273 0.464608 12.9613 -0.0527766 52.8184 1.17789 6.40752 0.184812 -4.82201 -3.23332 0.0 0.0 0.0 4.03899 7.63169 4.70339 6.46169 -0.319484 -0.939253 26.3514 27.7192 -3.73737 -11.1279 0.0 0.0 -0.0 0.0 -0.0 18.165 14.6132 1.18252 -9.18612 -0.267841 -1.38283 18.9295 4.70972 2.65421 -0.676915 0.0 0.0 0.0 0.0 0.0 
976.314 743.488 -1605.84 -11.8764 45.0942 5.26994 7.57466 0.746141 3.91815 7.58306 0.495507 3.95761 7.60374 0.182151 3.9843 7.5825 0.808628 3.90576 -16.1012 -3.0824 -10.896 -15.7677 0.37464 -11.3125 -0.0 0.0 -0.0 -2.05422 2.78466 -3.53559 -7.83319 -29.5486 55.0227 1.29565 -32.6919 0.380016 11.0233 0.256065 -1.38269 -2.29142 1.12189 -14.9566 -0.0 0.0 -0.0 6.04876 0.13005 -11.7118 -30.5307 27.6147 -82.2447 0.560452 15.5165 -0.0763569 53.5266 1.23269 6.47981 -0.0824375 -5.9397 -1.94092 0.0 0.0 0.0 3.5507 6.91409 5.34429 5.83371 -0.2838 -0.849589 28.4644 27.0565 -3.97842 -10.8024 0.0 0.0 -0.0 0.0 -0.0 17.7042 13.3584 1.51017 -10.2444 -0.284362 -1.54439 22.216 4.00975 3.05684 -0.156171 0.0 0.0 0.0 0.0 0.0 
968.238 745.551 -1607.97 -11.696 45.7359 4.52264 7.57271 0.814001 4.09146 7.58185 0.55223 4.13486 7.60693 0.225122 4.16544 7.5838 0.8796 4.07788 -16.0348 -4.43064 -10.3808 -15.7361 -2.49909 -11.2826 -0.0 0.0 -0.0 -1.87003 4.38997 -2.93683 -8.30017 -29.2055 55.5406 1.39394 -34.6239 0.434503 8.93442 0.228063 -1.11734 -1.63113 -1.34691 -11.5759 -0.0 0.0 -0.0 5.4947 -0.589972 -10.6411 -28.4666 26.9998 -81.8558 0.622507 17.1384 -0.0938041 54.4399 1.30467 6.57204 -0.234953 -6.16227 -1.03671 0.0 0.0 0.0 3.15457 6.57934 6.16253 4.53341 -0.213054 -0.66274 28.2943 27.5699 -3.97153 -12.465 0.0 0.0 -0.0 0.0 -0.0 16.2966 13.6005 2.27099 -10.0872 -0.282096 -1.52036 23.1267 1.04501 3.1402 -1.78778 0.0 0.0 0.0 0.0 0.0 
962.967 744.481 -1614.49 -11.169 47.8552 4.20147 7.46728 0.609288 4.40231 7.478 0.328204 4.43208 7.48673 -0.0315992 4.44408 7.4598 0.669969 4.3935 -16.4015 -4.91291 -10.1817 -16.1205 -3.61236 -11.275 -0.0 0.0 -0.0 -1.99081 5.28007 -3.01893 -9.40228 -29.0532 55.9856 1.44444 -35.5829 0.463543 7.15043 0.196502 -0.891653 -1.11453 -2.84247 -8.72435 -0.0 0.0 -0.0 5.90704 -0.338658 -11.4412 -28.9519 27.3403 -80.9491 0.738416 20.092 -0.130816 54.361 1.2984 6.56412 -0.290736 -5.65652 -0.459231 0.0 0.0 0.0 2.86538 4.82242 6.34042 4.30976 -0.201315 -0.630446 29.261 28.3108 -4.10847 -12.8769 0.0 0.0 -0.0 0.0 -0.0 15.6045 14.1559 2.72635 -10.97 -0.293963 -1.6553 21.8317 0.0517565 2.97733 -0.744221 0.0 0.0 0.0 0.0 0.0 
956.467 747.521 -1619.56 -11.1065 48.2076 3.45834 7.17843 0.735131 4.63674 7.19028 0.438924 4.67401 7.2085 0.0366742 4.69438 7.1786 0.776798 4.62995 -18.1091 -5.88755 -6.91424 -18.0388 -7.59203 -8.69815 -0.0 0.0 -0.0 -1.76724 6.68511 -2.38888 -10.4884 -28.6623 56.1164 1.60927 -38.5585 0.562937 6.97536 0.193026 -0.869561 -0.755954 -6.82195 -8.02192 -0.0 0.0 -0.0 5.71781 -0.648777 -11.077 -27.9064 26.4561 -81.6436 0.69831 19.0817 -0.11737 53.3063 1.21555 6.4574 -0.216906 -3.77526 -0.151144 0.0 0.0 0.0 2.80881 5.24857 7.02432 2.38559 -0.105564 -0.350811 28.1124 27.6764 -3.95237 -14.1671 0.0 0.0 -0.0 0.0 -0.0 14.8876 15.1094 3.12971 -12.2831 -0.307763 -1.8563 23.5418 -2.13143 3.17038 0.240697 -0.0 -0.0 0.0 0.0 0.0 
963.6 748.454 -1622.07 -12.1556 49.0129 3.92501 7.0901 0.677617 4.70968 7.10235 0.3769 4.74315 7.11576 -0.0389874 4.75791 7.08488 0.712079 4.7046 -18.4481 -6.25119 -4.3138 -18.5103 -9.72857 -6.46229 -0.0 0.0 -0.0 -2.19736 7.40605 -3.04697 -11.9996 -28.3387 56.2041 1.67588 -39.6957 0.604974 6.20598 0.176952 -0.772594 0.0166481 -8.49009 -3.49449 -0.0 0.0 -0.0 6.40533 -1.05051 -12.4239 -25.8798 26.0711 -80.1328 0.724428 19.7411 -0.126051 52.3853 1.14482 6.36298 -0.0987161 -2.04102 -0.202485 0.0 0.0 0.0 2.83637 6.58532 7.31278 4.39855 -0.205961 -0.643272 25.9475 27.9408 -3.69259 -14.9447 0.0 0.0 -0.0 0.0 -0.0 14.0961 15.7725 3.82584 -9.73086 -0.276718 -1.46595 23.1162 -4.12953 3.11287 -1.20605 0.0 0.0 0.0 0.0 0.0 
963.137 746.641 -1625.89 -11.6157 49.6344 3.28889 6.86334 0.635608 4.85899 6.87641 0.325508 4.88949 6.88611 -0.122863 4.89875 6.85323 0.651416 4.8569 -18.6115 -5.58179 -3.90219 -18.6609 -8.6723 -5.83036 -0.0 0.0 -0.0 -2.40641 8.03906 -3.31375 -13.3106 -28.4483 56.5856 1.6402 -39.091 0.582324 6.40054 0.18114 -0.797094 0.523039 -11.0194 -1.15424 -0.0 0.0 -0.0 6.28798 -1.53121 -12.1979 -24.3768 26.0541 -80.1852 0.752903 20.4538 -0.135835 50.6653 1.01685 6.18368 -0.0660049 -1.08427 -0.0168748 0.0 0.0 0.0 3.01278 6.46612 7.26237 3.54703 -0.162234 -0.519978 26.1964 27.9421 -3.7237 -15.6843 0.0 0.0 -0.0 0.0 -0.0 13.3505 16.4042 4.0378 -8.78998 -0.260889 -1.32245 21.2162 -5.80413 2.88097 -2.13241 0.0 0.0 0.0 0.0 0.0 
962.303 744.207 -1628.3 -12.0149 50.1586 3.46782 6.78711 0.566055 4.86681 6.80025 0.255599 4.89288 6.80427 -0.200054 4.89546 6.7713 0.574668 4.8658 -18.9367 -6.14969 -2.89615 -19.0501 -10.3215 -5.15839 -0.0 0.0 -0.0 -2.48997 7.53097 -3.55088 -14.8866 -29.5592 57.4999 1.6596 -39.421 0.594603 7.30207 0.199458 -0.910799 1.08962 -13.2211 1.71351 -0.0 0.0 -0.0 7.15966 -1.52238 -13.8997 -25.8553 26.1345 -78.7438 0.772771 20.9472 -0.142858 50.6102 1.01284 6.17788 0.0591282 1.29718 0.151521 0.0 0.0 0.0 3.13131 8.15726 7.58584 4.19496 -0.195339 -0.613852 26.8612 28.0475 -3.80898 -15.8948 0.0 0.0 -0.0 0.0 -0.0 12.9299 16.5824 4.26687 -7.88728 -0.24349 -1.18502 21.8213 -6.94587 2.95391 -0.779412 0.0 0.0 0.0 0.0 0.0 
